<?xml version="1.0" encoding="UTF-8"?>
<svg version="1.1" xmlns="http://www.w3.org/2000/svg" width="512" height="512">
<path d="M0 0 C1.57445973 1.34024258 3.13709829 2.69449849 4.6875 4.0625 C5.91533203 5.09310547 5.91533203 5.09310547 7.16796875 6.14453125 C16.04855535 13.78596623 32.61028512 29.33178258 33.890625 42.0859375 C34.01743593 48.44761939 34.01743593 48.44761939 32.3125 51.625 C30.6875 53.0625 30.6875 53.0625 28.6875 53.0625 C29.01363281 53.98289062 29.33976562 54.90328125 29.67578125 55.8515625 C30.11891503 57.12961066 30.56018008 58.40830764 31 59.6875 C31.23219238 60.35813477 31.46438477 61.02876953 31.70361328 61.71972656 C33.27377541 66.40497624 34.25374856 70.93964541 35.0625 75.8125 C35.75251708 80.186483 35.75251708 80.186483 38.35546875 83.49609375 C40.46626037 84.38949492 40.46626037 84.38949492 43.6875 85.0625 C45.90416876 88.38750313 46.45887913 90.09973828 46.6875 94.0625 C45.24786925 98.53293232 43.97991178 101.85125757 39.6875 104.0625 C38.3675 104.0625 37.0475 104.0625 35.6875 104.0625 C35.66171875 104.61035156 35.6359375 105.15820312 35.609375 105.72265625 C34.97808894 114.54631361 32.61803563 122.99799016 29.94140625 131.40625 C29.85761719 131.9528125 29.77382813 132.499375 29.6875 133.0625 C30.326875 133.59875 30.96625 134.135 31.625 134.6875 C34.39656931 137.87900405 34.49942715 139.9982665 34.328125 144.15234375 C32.99406727 150.21254502 29.24350814 155.09762358 25.6875 160.0625 C25.08679688 160.90683594 24.48609375 161.75117188 23.8671875 162.62109375 C5.04084772 187.43763255 -21.40329219 203.12637529 -52.0625 208.375 C-63.75115331 209.7873229 -75.92668254 209.90736347 -87.5625 208.0625 C-107.63385986 205.01536286 -126.468685 206.40506874 -145 214.6875 C-145.64066406 214.96916016 -146.28132813 215.25082031 -146.94140625 215.54101562 C-159.44269609 221.55318212 -169.53154207 231.7684844 -179.18896484 241.49291992 C-181.06253203 243.37503218 -182.95411475 245.23761874 -184.84765625 247.09960938 C-202.697613 264.84416018 -215.21121983 285.6066217 -215.67993164 311.33520508 C-215.70091893 320.45790774 -215.18408227 329.2007172 -213.76953125 338.20703125 C-210.23192043 368.04995327 -217.83725206 398.7490195 -236.0625 422.8125 C-251.35880904 442.1186957 -270.26892062 455.48865244 -293.5625 463.4375 C-294.25827148 463.67629883 -294.95404297 463.91509766 -295.67089844 464.16113281 C-325.39651398 473.73707703 -357.73482971 468.72218691 -385 454.75 C-411.42267171 440.01677007 -431.86471756 415.39750228 -440.4753418 386.30639648 C-449.00107487 355.21838896 -445.59352402 322.99758683 -430 294.75 C-426.08626628 287.9363557 -421.64468086 281.85363227 -416.3125 276.0625 C-415.83828613 275.5459082 -415.36407227 275.02931641 -414.87548828 274.49707031 C-395.0113651 253.10298431 -367.47072098 238.2221857 -337.85400391 236.95751953 C-328.84107101 236.69601616 -319.92387721 236.64440373 -311 238.0625 C-290.95809649 241.12877792 -272.12764329 239.70711665 -253.625 231.4375 C-252.98433594 231.15583984 -252.34367188 230.87417969 -251.68359375 230.58398438 C-239.18230391 224.57181788 -229.09345793 214.3565156 -219.43603516 204.63208008 C-217.56246797 202.74996782 -215.67088525 200.88738126 -213.77734375 199.02539062 C-195.90697302 181.26054638 -183.41201447 160.49298265 -182.94506836 134.73925781 C-182.92484833 125.91810882 -183.3692141 117.46149079 -184.85546875 108.7578125 C-188.59412437 78.52902432 -181.07053163 47.76176095 -162.625 23.375 C-154.37407026 12.91879793 -144.75733649 2.96233668 -133.3125 -3.9375 C-132.76996582 -4.28087402 -132.22743164 -4.62424805 -131.66845703 -4.97802734 C-123.65428851 -10.02706285 -115.54798793 -13.85753953 -106.5625 -16.875 C-105.72420654 -17.15730469 -104.88591309 -17.43960937 -104.0222168 -17.73046875 C-69.86774688 -28.58857626 -28.44269089 -22.35417737 0 0 Z " fill="#A2B6FE" transform="translate(455.3125,32.9375)"/>
<path d="M0 0 C1.57445973 1.34024258 3.13709829 2.69449849 4.6875 4.0625 C5.91533203 5.09310547 5.91533203 5.09310547 7.16796875 6.14453125 C16.3258028 14.02452799 32.17965463 29.0983101 33.9609375 42.05078125 C34.14531799 46.27025776 34.05993334 48.47381504 31.75 52.125 C28.20289656 54.36908585 26.07168103 54.62168278 21.96875 54.62890625 C17.77199789 53.58690444 15.33690941 51.08011523 13.0546875 47.50390625 C12.31605469 46.07884766 12.31605469 46.07884766 11.5625 44.625 C-1.04811598 22.24252142 -22.55649274 8.18760236 -46.8203125 1.02734375 C-72.69072873 -5.08489745 -98.7656612 0.03985531 -121.1640625 13.81640625 C-141.49612233 27.38160406 -155.94933792 47.76223837 -162.25 71.375 C-165.08425879 86.61351485 -164.02685674 103.06533742 -161.765625 118.3125 C-158.47916443 145.51079438 -165.25904933 173.6450815 -182.16015625 195.39575195 C-189.25671509 204.18836903 -197.22954742 212.22219666 -205.18530273 220.23046875 C-206.39067586 221.4473556 -207.59157225 222.66869393 -208.7878418 223.89453125 C-229.48488241 245.09956175 -255.12858353 260.57832628 -285.53125 261.328125 C-287.62499998 261.33333982 -289.71880168 261.3281052 -291.8125 261.3125 C-292.85019531 261.32023437 -293.88789063 261.32796875 -294.95703125 261.3359375 C-300.18311933 261.32292109 -305.12501989 261.01075711 -310.26953125 260.0703125 C-336.08867649 255.36288461 -361.18857379 260.08198245 -382.92016602 274.63305664 C-402.92713601 288.69238201 -416.76758687 309.02595143 -421.8046875 333 C-426.0352971 358.51383018 -422.36506 382.93300131 -408.3125 405.0625 C-405.77356321 408.51105588 -403.08411427 411.79957838 -400.3125 415.0625 C-399.53519531 416.03960937 -398.75789063 417.01671875 -397.95703125 418.0234375 C-384.48941132 434.13698542 -361.8571359 444.48176988 -341.3125 447.0625 C-314.63861557 448.87708878 -288.99885323 443.0390761 -268.21484375 425.4921875 C-252.95288165 412.17339936 -243.02849996 396.42600373 -237.3125 377.0625 C-237.12558594 376.44391113 -236.93867188 375.82532227 -236.74609375 375.18798828 C-234.96015963 368.4479869 -235.00878279 361.66875356 -235.05175781 354.74316406 C-235.06244375 352.69826354 -235.05183068 350.65424831 -235.0390625 348.609375 C-235.03250309 341.79224 -235.46175266 335.37878946 -236.84521484 328.69970703 C-241.28537944 303.64084709 -234.23645491 277.35979901 -220.5625 256.3125 C-220.20518799 255.75900879 -219.84787598 255.20551758 -219.47973633 254.63525391 C-212.05462971 243.78959255 -201.95422949 234.47348216 -192.71606445 225.17089844 C-191.57288108 224.01616775 -190.43418513 222.85697703 -189.30004883 221.69335938 C-179.19387539 211.32685998 -168.41057497 201.90792744 -155.1875 195.6875 C-154.51992676 195.36499268 -153.85235352 195.04248535 -153.16455078 194.71020508 C-147.36253355 191.96754694 -141.50444589 189.76693191 -135.3125 188.0625 C-134.343125 187.76472656 -133.37375 187.46695313 -132.375 187.16015625 C-124.26937241 185.00461558 -116.41749115 184.78047128 -108.0625 184.75 C-106.41096924 184.74178223 -106.41096924 184.74178223 -104.72607422 184.73339844 C-99.8045807 184.77639386 -95.17882459 184.97385571 -90.37109375 186.0625 C-84.14984315 187.45605513 -77.97699451 187.40503713 -71.625 187.375 C-70.38274658 187.36936035 -69.14049316 187.3637207 -67.8605957 187.35791016 C-44.10293611 187.04361012 -23.1281074 178.91334593 -5.3125 163.0625 C-4.54035156 162.38574219 -3.76820313 161.70898438 -2.97265625 161.01171875 C2.88220085 155.54787144 7.06255828 149.3260433 11.328125 142.61328125 C16.93310018 133.93969991 16.93310018 133.93969991 20.6875 132.0625 C24.8859806 132.02197413 28.5678628 132.43441084 32.25 134.5 C34.63981589 138.76010659 34.73220292 142.31674588 33.6875 147.0625 C31.46351021 151.74548881 28.69541707 155.86286493 25.6875 160.0625 C25.08679688 160.90683594 24.48609375 161.75117188 23.8671875 162.62109375 C5.04084772 187.43763255 -21.40329219 203.12637529 -52.0625 208.375 C-63.75115331 209.7873229 -75.92668254 209.90736347 -87.5625 208.0625 C-107.63385986 205.01536286 -126.468685 206.40506874 -145 214.6875 C-145.64066406 214.96916016 -146.28132813 215.25082031 -146.94140625 215.54101562 C-159.44269609 221.55318212 -169.53154207 231.7684844 -179.18896484 241.49291992 C-181.06253203 243.37503218 -182.95411475 245.23761874 -184.84765625 247.09960938 C-202.697613 264.84416018 -215.21121983 285.6066217 -215.67993164 311.33520508 C-215.70091893 320.45790774 -215.18408227 329.2007172 -213.76953125 338.20703125 C-210.23192043 368.04995327 -217.83725206 398.7490195 -236.0625 422.8125 C-251.35880904 442.1186957 -270.26892062 455.48865244 -293.5625 463.4375 C-294.25827148 463.67629883 -294.95404297 463.91509766 -295.67089844 464.16113281 C-325.39651398 473.73707703 -357.73482971 468.72218691 -385 454.75 C-411.42267171 440.01677007 -431.86471756 415.39750228 -440.4753418 386.30639648 C-449.00107487 355.21838896 -445.59352402 322.99758683 -430 294.75 C-426.08626628 287.9363557 -421.64468086 281.85363227 -416.3125 276.0625 C-415.83828613 275.5459082 -415.36407227 275.02931641 -414.87548828 274.49707031 C-395.0113651 253.10298431 -367.47072098 238.2221857 -337.85400391 236.95751953 C-328.84107101 236.69601616 -319.92387721 236.64440373 -311 238.0625 C-290.95809649 241.12877792 -272.12764329 239.70711665 -253.625 231.4375 C-252.98433594 231.15583984 -252.34367188 230.87417969 -251.68359375 230.58398438 C-239.18230391 224.57181788 -229.09345793 214.3565156 -219.43603516 204.63208008 C-217.56246797 202.74996782 -215.67088525 200.88738126 -213.77734375 199.02539062 C-195.90697302 181.26054638 -183.41201447 160.49298265 -182.94506836 134.73925781 C-182.92484833 125.91810882 -183.3692141 117.46149079 -184.85546875 108.7578125 C-188.59412437 78.52902432 -181.07053163 47.76176095 -162.625 23.375 C-154.37407026 12.91879793 -144.75733649 2.96233668 -133.3125 -3.9375 C-132.76996582 -4.28087402 -132.22743164 -4.62424805 -131.66845703 -4.97802734 C-123.65428851 -10.02706285 -115.54798793 -13.85753953 -106.5625 -16.875 C-105.72420654 -17.15730469 -104.88591309 -17.43960937 -104.0222168 -17.73046875 C-69.86774688 -28.58857626 -28.44269089 -22.35417737 0 0 Z " fill="#466FFD" transform="translate(455.3125,32.9375)"/>
<path d="M0 0 C24.39753854 21.57565456 39.48063471 50.04600635 41.49560547 82.8347168 C42.83466598 115.4147398 31.47667736 145.10676801 9.80859375 169.18359375 C-8.40214206 188.68778051 -35.66175982 203.23226477 -62.56005859 204.59472656 C-98.53280681 205.03838874 -128.8798105 198.04557279 -155.69262695 172.52319336 C-172.45410963 156.0780077 -183.0157023 136.28964252 -188.37890625 113.43359375 C-188.62382812 112.3971875 -188.86875 111.36078125 -189.12109375 110.29296875 C-194.97528305 79.6587179 -187.18317765 48.34344068 -170.06640625 22.68359375 C-151.35629883 -3.23503109 -124.54562733 -20.38782549 -92.87890625 -25.81640625 C-59.75069024 -29.9434904 -25.64657029 -22.06500436 0 0 Z M-135.37890625 16.43359375 C-136.18972656 17.10003906 -137.00054687 17.76648438 -137.8359375 18.453125 C-152.46884729 30.92818634 -162.99124077 48.71935206 -167.37890625 67.43359375 C-167.71341797 68.80257812 -167.71341797 68.80257812 -168.0546875 70.19921875 C-172.93200872 93.95542277 -167.99526796 119.32903509 -155.06640625 139.74609375 C-151.05188531 145.82949418 -146.52996413 151.28253587 -141.37890625 156.43359375 C-140.60933594 157.20316406 -139.83976562 157.97273437 -139.046875 158.765625 C-121.41286536 175.48802186 -97.16793609 184.7703178 -72.8828125 184.39501953 C-50.91332461 183.40910068 -29.92807246 176.18267521 -13.37890625 161.43359375 C-12.62351562 160.82 -11.868125 160.20640625 -11.08984375 159.57421875 C5.25085569 145.98504602 17.55411619 123.68567913 19.62109375 102.43359375 C20.39130603 89.0274351 20.77118729 75.33569906 16.62109375 62.43359375 C16.28078125 61.36753906 15.94046875 60.30148437 15.58984375 59.203125 C11.16675625 46.69594851 4.45427128 35.33199677 -4.37890625 25.43359375 C-5.10464844 24.61375 -5.83039063 23.79390625 -6.578125 22.94921875 C-22.27894263 6.23628229 -45.72265622 -4.98368658 -68.77734375 -5.76953125 C-93.49068038 -6.15975491 -116.238638 0.04237659 -135.37890625 16.43359375 Z " fill="#456EFD" transform="translate(460.37890625,296.56640625)"/>
<path d="M0 0 C24.85865615 19.32346205 41.62672335 46.71037194 45.71875 78.1875 C48.28547857 111.84016342 40.24696275 143.0874122 18.25390625 169.18359375 C-1.54038956 191.88901157 -28.92243906 206.16221355 -59 208.875 C-90.80959902 210.53181671 -121.82401674 202.40729941 -146 180.875 C-153.95879868 173.6018957 -161.40558997 166.15451068 -167 156.875 C-167.34337402 156.33246582 -167.68674805 155.78993164 -168.04052734 155.23095703 C-176.74507312 141.41451689 -183.33844857 125.22941334 -185 108.875 C-185.13148438 107.72902344 -185.26296875 106.58304688 -185.3984375 105.40234375 C-188.17868183 74.54163167 -179.65290252 43.95609985 -160 19.875 C-159.57493164 19.35357422 -159.14986328 18.83214844 -158.71191406 18.29492188 C-119.36512103 -29.01596997 -49.16236104 -34.97717386 0 0 Z M-131 20.875 C-131.74378906 21.47699219 -132.48757812 22.07898438 -133.25390625 22.69921875 C-151.36487952 37.72345223 -161.85074454 60.64209455 -164.4375 83.75 C-166.64938801 108.09007154 -159.83621758 132.59194567 -144.5625 151.8125 C-143.06402488 153.51988473 -141.54335422 155.20807228 -140 156.875 C-139.25363281 157.71289062 -138.50726563 158.55078125 -137.73828125 159.4140625 C-122.08376826 176.12945984 -98.57343407 187.30030733 -75.56640625 188.078125 C-51.03863231 188.46298014 -27.96433498 182.07156717 -9 165.875 C-8.21238281 165.24335938 -7.42476562 164.61171875 -6.61328125 163.9609375 C11.47693277 148.79582873 22.32022385 126.14146773 25 102.875 C26.5494715 77.1131412 20.23048115 51.69429396 2.90307617 31.96850586 C-16.82716306 10.43930276 -40.12911956 0.2292778 -69 -2.125 C-91.61370824 -2.125 -114.09576979 5.812707 -131 20.875 Z " fill="#456EFD" transform="translate(196,33.125)"/>
<path d="M0 0 C3.28175318 2.52968474 4.69243777 4.07731331 6 8 C6.08397157 10.35680213 6.10728187 12.71594081 6.09765625 15.07421875 C6.0962413 15.7580513 6.09482635 16.44188385 6.09336853 17.1464386 C6.08777876 19.32683722 6.07522822 21.50713251 6.0625 23.6875 C6.05748367 25.16731622 6.052921 26.64713406 6.04882812 28.12695312 C6.03781271 31.75133557 6.02055512 35.3756577 6 39 C6.94842773 38.98952637 7.89685547 38.97905273 8.87402344 38.96826172 C12.40008991 38.93413292 15.92598029 38.90907832 19.45214844 38.89013672 C20.97691623 38.88009256 22.50166484 38.86645469 24.02636719 38.84912109 C26.22075138 38.82480262 28.41488042 38.81350111 30.609375 38.8046875 C31.92905273 38.79421387 33.24873047 38.78374023 34.60839844 38.77294922 C37.76897277 38.98453388 39.43725778 39.21244563 42 41 C44.85755353 45.1385258 45.47642878 48.32531176 44.65234375 53.16796875 C43.3490927 56.82799716 40.30549145 58.34725427 37 60 C34.67583704 60.08586809 32.34916693 60.10711043 30.0234375 60.09765625 C28.99556625 60.09553383 28.99556625 60.09553383 27.94692993 60.09336853 C25.75624239 60.08776675 23.5656567 60.07521406 21.375 60.0625 C19.89062648 60.05748522 18.40625135 60.05292228 16.921875 60.04882812 C13.28121685 60.03779677 9.64061836 60.02053099 6 60 C6.02094727 60.90766113 6.04189453 61.81532227 6.06347656 62.75048828 C6.13190933 66.13877642 6.18192295 69.5263235 6.21972656 72.91503906 C6.23976332 74.37772252 6.26700104 75.84032666 6.30175781 77.30273438 C6.35063225 79.4129601 6.37304659 81.52212136 6.390625 83.6328125 C6.41157227 84.90012207 6.43251953 86.16743164 6.45410156 87.47314453 C5.91908569 91.62843451 4.58963281 93.75117695 2 97 C-1.205402 99.35062814 -4.09882438 99.39807915 -8 99 C-10.70110496 97.77222502 -12.44318969 96.8129286 -14.12841797 94.35253906 C-15.35376758 91.04512482 -15.2232605 88.13082347 -15.1953125 84.609375 C-15.1924826 83.90476135 -15.18965271 83.20014771 -15.18673706 82.47418213 C-15.17557801 80.2326124 -15.15048193 77.99144814 -15.125 75.75 C-15.11496464 74.22656829 -15.10583976 72.70313029 -15.09765625 71.1796875 C-15.07565291 67.45299414 -15.04115272 63.72653667 -15 60 C-15.90766113 60.01571045 -16.81532227 60.0314209 -17.75048828 60.04760742 C-21.13873072 60.0989313 -24.52655619 60.13644416 -27.91503906 60.16479492 C-29.37767075 60.17982196 -30.84025782 60.20024955 -32.30273438 60.22631836 C-34.4128728 60.26297267 -36.52241226 60.27978676 -38.6328125 60.29296875 C-40.53377686 60.31653442 -40.53377686 60.31653442 -42.47314453 60.34057617 C-46.34944957 59.96625487 -48.71295564 59.05914626 -52 57 C-54.6790573 52.98141405 -54.69610694 49.72358279 -54 45 C-52.20606332 42.12970131 -51.01736724 40.50868362 -48 39 C-45.51900266 38.91350549 -43.06655072 38.88434946 -40.5859375 38.90234375 C-39.49147812 38.90446617 -39.49147812 38.90446617 -38.37490845 38.90663147 C-36.04156415 38.91223469 -33.70831536 38.92478765 -31.375 38.9375 C-29.79427222 38.94251459 -28.21354293 38.94707757 -26.6328125 38.95117188 C-22.75517146 38.96220516 -18.87760193 38.97947189 -15 39 C-15.02094727 38.02651611 -15.04189453 37.05303223 -15.06347656 36.05004883 C-15.13608186 32.42536224 -15.18187335 28.80073945 -15.21972656 25.17553711 C-15.23979558 23.60902077 -15.26705751 22.04257891 -15.30175781 20.47631836 C-15.35048754 18.21970206 -15.3730147 15.96407917 -15.390625 13.70703125 C-15.41127014 13.01100296 -15.43191528 12.31497467 -15.45318604 11.59785461 C-15.45483032 8.00418065 -15.08015358 6.12318719 -13.10058594 3.08081055 C-9.25724739 -0.72634595 -5.2072744 -0.81841446 0 0 Z " fill="#456EFC" transform="translate(131,77)"/>
<path d="M0 0 C3.13487798 1.82580806 5.47672256 4.4174907 8 7 C9.2783916 8.26979794 10.55849788 9.53787076 11.83984375 10.8046875 C15.58183925 14.51490759 19.29745195 18.25044695 23 22 C28.01520023 17.80780699 32.67953892 13.41938881 37.25 8.75 C38.46116003 7.51328807 39.6746134 6.27881688 40.890625 5.046875 C41.41688477 4.50901367 41.94314453 3.97115234 42.48535156 3.41699219 C45.88458992 0.23691814 48.37689864 -0.43020666 52.99609375 -0.328125 C56.12934234 0.18492155 57.83568496 1.77009966 60 4 C61.70306386 7.40612771 61.90833909 10.37273986 61 14 C58.45565288 17.76204474 55.23171644 20.83460217 52 24 C50.83425103 25.17410919 49.67027364 26.34997926 48.5078125 27.52734375 C45.3595397 30.70652827 42.18583678 33.85847934 39 37 C43.35645531 42.22368125 47.95760225 47.05233196 52.8125 51.8125 C54.15462862 53.12918543 55.49458677 54.4480881 56.83203125 55.76953125 C57.41702393 56.34292236 58.0020166 56.91631348 58.60473633 57.50708008 C61.28608295 60.37609751 61.38748916 63.09524103 61.359375 66.9609375 C60.7567698 70.38006698 58.63213933 71.93189052 56 74 C52.98221063 75.50889469 51.37677363 75.50026276 48 75 C44.95840092 73.08545426 42.53829802 70.52670762 40 68 C39.39784668 67.40477539 38.79569336 66.80955078 38.17529297 66.19628906 C33.75581633 61.82481543 29.36771065 57.4231601 25 53 C21.56831517 54.4729254 19.40038391 56.38976744 16.8125 59.0625 C16.03132813 59.85914063 15.25015625 60.65578125 14.4453125 61.4765625 C13.63835937 62.30929688 12.83140625 63.14203125 12 64 C10.40061656 65.65048195 8.79662353 67.29651264 7.1875 68.9375 C6.47980469 69.66839844 5.77210938 70.39929688 5.04296875 71.15234375 C2.16538829 73.75482092 -0.04806548 74.8551404 -3.875 75.4375 C-8.2682371 74.82244681 -9.84565969 73.08098355 -13 70 C-14.43304064 67.13391871 -14.30644155 65.18699217 -14 62 C-10.66430119 55.94331111 -5.65199337 51.42742163 -0.75 46.625 C0.09046875 45.79355469 0.9309375 44.96210938 1.796875 44.10546875 C3.86010502 42.06568453 5.92787123 40.03073714 8 38 C6.50869052 34.45546002 4.49738059 32.36161345 1.68359375 29.76953125 C0.41418945 28.56393555 0.41418945 28.56393555 -0.88085938 27.33398438 C-2.66098851 25.66017031 -4.45264325 23.99852564 -6.25585938 22.34960938 C-10.9992196 17.80162783 -14.0186803 14.65269585 -14.29003906 7.91674805 C-13.81399115 4.77074453 -12.29279575 3.0962704 -10 1 C-6.6832416 -0.6583792 -3.560035 -0.71964929 0 0 Z " fill="#4770FD" transform="translate(362,89)"/>
<path d="M0 0 C0.83135971 -0.00671722 1.66271942 -0.01343445 2.51927185 -0.02035522 C5.26559435 -0.03934252 8.01167261 -0.04325961 10.75805664 -0.04541016 C12.66850383 -0.05183695 14.57895003 -0.05856522 16.48939514 -0.06558228 C20.49327883 -0.07755642 24.49707623 -0.08126289 28.50097656 -0.08007812 C33.63030641 -0.07987479 38.75908313 -0.10719179 43.88828182 -0.14162254 C47.83368978 -0.16386301 51.77896395 -0.16791656 55.72442818 -0.16685867 C57.61546296 -0.16921836 59.50650123 -0.17806256 61.39747429 -0.19352341 C64.04272068 -0.2131283 66.68676534 -0.20736761 69.33203125 -0.1953125 C70.1119342 -0.20655151 70.89183716 -0.21779053 71.69537354 -0.22937012 C75.42040426 -0.18625052 77.52895694 0.16076214 80.69313049 2.19589233 C84.0634858 5.6606181 84.12020689 8.3528333 84.09008789 13.02880859 C83.52014423 16.61573664 81.52845241 18.15891628 78.73071289 20.29052734 C75.61209674 21.84983542 72.2959363 21.44669219 68.87207031 21.45166016 C68.0605098 21.45662506 67.24894928 21.46158997 66.41279602 21.46670532 C63.72058268 21.48134296 61.02842828 21.48813197 58.33618164 21.49365234 C56.46771747 21.49940295 54.59925332 21.50516069 52.73078918 21.51092529 C48.80913009 21.52144016 44.88749153 21.52727949 40.96582031 21.53076172 C35.94191656 21.53624422 30.91828414 21.56026499 25.89446545 21.58873367 C22.03313914 21.60736355 18.17187809 21.61256586 14.31051064 21.6140976 C12.45855541 21.6171244 10.60660133 21.62515387 8.75469017 21.63828278 C6.16209709 21.65534891 3.57016562 21.65346161 0.97753906 21.64697266 C-0.16897629 21.66079483 -0.16897629 21.66079483 -1.33865356 21.67489624 C-5.83521111 21.6396641 -8.69068427 21.05783097 -12.26928711 18.29052734 C-14.43161592 15.53169404 -15.20871474 13.77510631 -15.64428711 10.29052734 C-15.21303481 6.84050891 -14.39777195 5.02715072 -12.26928711 2.29052734 C-8.52670336 -0.34734353 -4.39604135 -0.00509568 0 0 Z " fill="#456EFD" transform="translate(351.269287109375,347.70947265625)"/>
<path d="M0 0 C0.84082123 -0.0065712 1.68164246 -0.0131424 2.54794312 -0.01991272 C5.33754561 -0.03966437 8.12709424 -0.05131231 10.91674805 -0.0612793 C11.86850607 -0.06535482 12.82026409 -0.06943035 13.80086327 -0.07362938 C18.83810587 -0.09449785 23.87532116 -0.10879633 28.91259766 -0.11816406 C34.11817781 -0.12923156 39.32333086 -0.16363318 44.52875996 -0.20333576 C48.52905579 -0.22946842 52.52924934 -0.23785291 56.52962303 -0.24144554 C58.44857862 -0.24631999 60.36752939 -0.25795834 62.28640175 -0.27648354 C64.97252973 -0.30080438 67.65754586 -0.29992302 70.34375 -0.29296875 C71.53234367 -0.31218384 71.53234367 -0.31218384 72.74494934 -0.33178711 C76.49930072 -0.29636725 78.64388711 0.03461041 81.83610535 2.08137512 C84.9280866 5.27353332 85.26622843 7.61556221 85.2175293 12.0715332 C84.58256937 15.87423766 82.65528924 17.57786059 79.8659668 20.17700195 C76.1046781 21.6283736 72.04725699 21.33207658 68.0715332 21.33813477 C67.29054764 21.34309967 66.50956207 21.34806458 65.70491028 21.35317993 C63.12577427 21.3677641 60.54669974 21.3745969 57.9675293 21.38012695 C56.17157999 21.38588099 54.37563069 21.39163869 52.5796814 21.3973999 C48.81540644 21.40789888 45.05115277 21.41374893 41.28686523 21.41723633 C36.46937717 21.42272218 31.65217158 21.44675676 26.83477211 21.47520828 C23.125246 21.49385328 19.41578773 21.49904123 15.70621872 21.5005722 C13.9304487 21.50359448 12.15467975 21.51160866 10.37895584 21.52475739 C7.8921496 21.54185882 5.40603104 21.53992795 2.91918945 21.53344727 C1.82485847 21.54726944 1.82485847 21.54726944 0.7084198 21.56137085 C-3.97276667 21.52325723 -7.15811378 20.64459632 -11.1340332 18.17700195 C-13.33200791 15.46616649 -14.05801197 13.68743023 -14.5715332 10.23950195 C-14.01796998 6.36455936 -12.5422979 4.22274848 -10.1340332 1.17700195 C-6.94855335 -0.41573797 -3.49953789 0.01178496 0 0 Z " fill="#456EFD" transform="translate(350.134033203125,402.822998046875)"/>
<path d="M0 0 C0.83121368 -0.00671722 1.66242737 -0.01343445 2.51882935 -0.02035522 C5.27058873 -0.03937529 8.02210472 -0.04326148 10.77392578 -0.04541016 C12.68580222 -0.05183548 14.59767765 -0.05856364 16.509552 -0.06558228 C20.51941202 -0.0775652 24.52918583 -0.08126207 28.5390625 -0.08007812 C33.67626808 -0.07987492 38.81292055 -0.10717406 43.94999504 -0.14162254 C47.89969418 -0.16386527 51.84925968 -0.16791647 55.79901505 -0.16685867 C57.69284089 -0.16921871 59.58667019 -0.17806485 61.48043442 -0.19352341 C64.13057876 -0.21312965 66.77952366 -0.20736669 69.4296875 -0.1953125 C70.2111615 -0.20655151 70.9926355 -0.21779053 71.79779053 -0.22937012 C75.52637948 -0.18629523 77.64013601 0.15929697 80.80764771 2.19589233 C83.92684838 5.40399268 84.23622615 7.76719579 84.20361328 12.25146484 C83.60100808 15.67059433 81.47637761 17.22241787 78.84423828 19.29052734 C75.73083098 20.847231 72.42050317 20.46445454 69.00146484 20.48339844 C68.19151062 20.49157593 67.3815564 20.49975342 66.54705811 20.50817871 C63.85966738 20.53304314 61.17232956 20.54955233 58.48486328 20.56396484 C57.108745 20.57195036 57.108745 20.57195036 55.70482635 20.5800972 C50.84798518 20.60683472 45.99116975 20.62620674 41.13427734 20.640625 C36.11925667 20.65726463 31.1048942 20.70203479 26.09012222 20.75299644 C22.23304497 20.78666755 18.37612387 20.79820233 14.51891327 20.80385208 C12.67053961 20.8105661 10.82217629 20.82579213 8.97394562 20.84974289 C6.3836167 20.88139202 3.79506165 20.8814319 1.20458984 20.87402344 C0.44384155 20.89042877 -0.31690674 20.90683411 -1.10070801 20.92373657 C-6.90049392 20.85599011 -9.25270192 19.2830258 -13.15576172 15.29052734 C-14.33675538 12.61428419 -14.42025462 10.19407164 -14.15576172 7.29052734 C-11.16055294 0.40154716 -6.89304064 -0.00795351 0 0 Z " fill="#4770FD" transform="translate(91.15576171875,375.70947265625)"/>
<path d="M0 0 C3.10394086 2.89701147 3.83557186 5.8070823 4 10 C2.87248874 13.50121917 1.69502094 16.14458961 -0.625 19 C-4.4627613 20.61589949 -8.03825256 20.08511097 -12 19 C-14.99452434 16.75410675 -15.81623122 15.55130633 -17 12 C-17.48786006 7.60925949 -17.5689965 5.73156693 -14.8125 2.1875 C-9.39919082 -2.02285158 -6.5243704 -2.65807683 0 0 Z " fill="#466FFD" transform="translate(498,117)"/>
</svg>
